<svg width="16" height="16" viewBox="0 0 16 16" fill="none" xmlns="http://www.w3.org/2000/svg">
<path d="M14.2923 7.77449L8.1656 13.9012C7.41504 14.6517 6.39705 15.0734 5.3356 15.0734C4.27414 15.0734 3.25616 14.6517 2.5056 13.9012C1.75504 13.1506 1.33337 12.1326 1.33337 11.0712C1.33337 10.0097 1.75504 8.99172 2.5056 8.24116L8.63227 2.11449C9.13264 1.61412 9.81129 1.33301 10.5189 1.33301C11.2266 1.33301 11.9052 1.61412 12.4056 2.11449C12.906 2.61487 13.1871 3.29352 13.1871 4.00116C13.1871 4.70879 12.906 5.38745 12.4056 5.88782L6.27227 12.0145C6.02208 12.2647 5.68275 12.4052 5.32893 12.4052C4.97511 12.4052 4.63579 12.2647 4.3856 12.0145C4.13541 11.7643 3.99486 11.425 3.99486 11.0712C3.99486 10.7173 4.13541 10.378 4.3856 10.1278L10.0456 4.47449" stroke="#EF4444" stroke-linecap="round" stroke-linejoin="round"/>
</svg>
