<svg width="16" height="16" viewBox="0 0 16 16" fill="none" xmlns="http://www.w3.org/2000/svg">
<g clip-path="url(#clip0_2596_1869)">
<path d="M8.00021 5.42578C6.57957 5.42578 5.42529 6.58005 5.42529 8.0007C5.42529 9.42134 6.57957 10.5756 8.00021 10.5756C9.42085 10.5756 10.5751 9.42134 10.5751 8.0007C10.5751 6.58005 9.42085 5.42578 8.00021 5.42578ZM7.80487 7.2371C7.48523 7.2371 7.21886 7.50347 7.21886 7.82312H6.36647C6.38423 7.02401 7.02352 6.38472 7.80487 6.38472V7.2371Z" fill="#EF4444"/>
<path d="M15.8135 7.46768C14.9434 6.38444 11.8357 2.85059 8 2.85059C4.16426 2.85059 1.0566 6.38444 0.18646 7.46768C-0.0621532 7.76956 -0.0621532 8.21352 0.18646 8.53316C1.0566 9.6164 4.16426 13.1503 8 13.1503C11.8357 13.1503 14.9434 9.6164 15.8135 8.53316C16.0622 8.23127 16.0622 7.78732 15.8135 7.46768ZM8 11.7296C5.94007 11.7296 4.27081 10.0604 4.27081 8.00042C4.27081 5.94049 5.94007 4.27123 8 4.27123C10.0599 4.27123 11.7292 5.94049 11.7292 8.00042C11.7292 10.0604 10.0599 11.7296 8 11.7296Z" fill="#EF4444"/>
</g>
<defs>
<clipPath id="clip0_2596_1869">
<rect width="16" height="16" fill="white"/>
</clipPath>
</defs>
</svg>
