<svg width="16" height="16" viewBox="0 0 16 16" fill="none" xmlns="http://www.w3.org/2000/svg">
<path d="M14.7307 1.39306C13.9025 0.49475 12.766 0 11.5304 0C10.6068 0 9.761 0.292 9.01634 0.867813C8.64062 1.15844 8.30016 1.51406 8 1.92906C7.69994 1.51416 7.35938 1.15844 6.98353 0.867813C6.239 0.292 5.39319 0 4.46959 0C3.234 0 2.09741 0.49475 1.26916 1.39306C0.450812 2.28087 0 3.49378 0 4.80847C0 6.16159 0.504281 7.40028 1.58691 8.70666C2.55541 9.87525 3.94737 11.0615 5.55931 12.4352C6.10975 12.9043 6.73366 13.436 7.38147 14.0024C7.55264 14.1524 7.77246 14.235 8 14.2349C8.22766 14.2349 8.44738 14.1523 8.61828 14.0027C9.26609 13.4362 9.89038 12.9042 10.441 12.4348C12.0528 11.0614 13.4447 9.87525 14.4132 8.70653C15.4958 7.40031 16 6.16162 16 4.80834C16 3.49378 15.5492 2.28087 14.7307 1.39306Z" fill="#EF4444"/>
</svg>
