<svg width="21" height="20" viewBox="0 0 21 20" fill="none" xmlns="http://www.w3.org/2000/svg">
<path d="M13.1667 14.3333V17.3333H3.16667V2.66667H9.16667V6.33333C9.16667 6.42174 9.20179 6.50652 9.2643 6.56904C9.32681 6.63155 9.4116 6.66667 9.5 6.66667H13.1667V7.66667C13.1667 8.108 13.8333 8.10733 13.8333 7.66667V6.33333C13.8263 6.24631 13.792 6.16372 13.7353 6.09733L9.736 2.098C9.66961 2.0413 9.58702 2.00701 9.5 2H2.83333C2.74493 2 2.66014 2.03512 2.59763 2.09763C2.53512 2.16014 2.5 2.24493 2.5 2.33333V17.6667C2.5 17.7551 2.53512 17.8399 2.59763 17.9024C2.66014 17.9649 2.74493 18 2.83333 18H13.5C13.5884 18 13.6732 17.9649 13.7357 17.9024C13.7982 17.8399 13.8333 17.7551 13.8333 17.6667V14.3333C13.8333 13.892 13.1667 13.8927 13.1667 14.3333ZM9.83333 6V3.138L12.6953 6H9.83333Z" fill="#DC2626" stroke="#DC2626" stroke-width="0.5"/>
<path d="M18.4024 7.75726L16.7357 6.09726C16.6732 6.03498 16.5886 6 16.5004 6C16.4122 6 16.3275 6.03498 16.2651 6.09726L9.26505 13.0973C9.2247 13.137 9.19551 13.1867 9.18038 13.2413L8.51372 15.5746C8.49735 15.6321 8.49674 15.6929 8.51194 15.7507C8.52715 15.8085 8.55761 15.8611 8.60013 15.9031C8.64266 15.9451 8.69569 15.9749 8.75367 15.9893C8.81166 16.0038 8.87246 16.0024 8.92972 15.9853L11.2631 15.2833C11.3156 15.2673 11.3635 15.2387 11.4024 15.1999L18.4024 8.2286C18.4334 8.19769 18.458 8.16096 18.4748 8.12052C18.4916 8.08008 18.5003 8.03672 18.5003 7.99293C18.5003 7.94914 18.4916 7.90578 18.4748 7.86534C18.458 7.8249 18.4334 7.78817 18.4024 7.75726ZM10.9911 14.6693L9.32172 15.1713L9.79705 13.5073L15.1677 8.13726L16.3584 9.32326L10.9911 14.6693ZM16.8304 8.85393L15.6391 7.6666L16.5011 6.8046L17.6944 7.99393L16.8304 8.85393Z" fill="#DC2626" stroke="#DC2626" stroke-width="0.5"/>
</svg>
