<svg width="24" height="24" viewBox="0 0 24 24" fill="none" xmlns="http://www.w3.org/2000/svg">
<g clip-path="url(#clip0_3606_11358)">
<path d="M15.8116 13.0953L17.9964 13.5289C18.0732 14.7566 19.1307 15.6895 20.3584 15.6128C21.5861 15.536 22.519 14.4785 22.4423 13.2508C22.3655 12.0231 21.308 11.0902 20.0803 11.1669C19.6893 11.1914 19.3116 11.3185 18.9855 11.5356C18.6593 11.7526 18.3961 12.0519 18.2226 12.4031L15.9617 11.9544C15.9372 11.0981 15.6058 10.279 15.028 9.64646L18.0757 5.3412C19.487 5.95327 21.1272 5.30537 21.7392 3.89417C22.3512 2.48296 21.7034 0.842681 20.2922 0.230662C18.881 -0.381358 17.2407 0.266487 16.6287 1.67769C16.4137 2.17326 16.3475 2.72063 16.4382 3.25315C16.5288 3.78566 16.7723 4.28034 17.139 4.67693L14.1275 8.93121C12.6867 8.12261 10.8796 8.40548 9.75482 9.61569L5.80844 6.55094C6.32952 5.4338 5.84628 4.10585 4.7292 3.58477C3.61206 3.06369 2.28411 3.54693 1.76303 4.66401C1.24195 5.78115 1.7252 7.1091 2.84228 7.63018C3.19833 7.79625 3.59192 7.8654 3.98326 7.83063C4.3746 7.79586 4.74983 7.65841 5.07104 7.43217L9.11398 10.5718C8.46453 11.9903 8.80843 13.6661 9.96415 14.714L7.54237 18.139C6.11267 17.3419 4.3075 17.8548 3.51044 19.2844C2.71338 20.7141 3.22619 22.5193 4.65588 23.3164C6.08558 24.1134 7.89075 23.6006 8.68781 22.1709C8.97357 21.6584 9.10074 21.0725 9.0532 20.4876C9.00566 19.9027 8.78556 19.3451 8.42078 18.8854L10.9268 15.341C11.3591 15.5328 11.8251 15.6369 12.2979 15.6473C12.7707 15.6577 13.2409 15.5742 13.6812 15.4016L16.677 19.827C15.7609 20.8705 15.8641 22.459 16.9075 23.375C17.9509 24.2912 19.5394 24.1879 20.4555 23.1446C21.3716 22.1012 21.2684 20.5127 20.225 19.5966C19.8733 19.2878 19.4423 19.0833 18.9807 19.0061C18.519 18.9289 18.045 18.9822 17.612 19.1599L14.6714 14.8159C15.2114 14.3661 15.6078 13.7679 15.8116 13.0953ZM20.2183 12.3108C20.8139 12.3108 21.2967 12.7937 21.2967 13.3892C21.2967 13.9848 20.8139 14.4677 20.2183 14.4677C19.6227 14.4677 19.1398 13.9848 19.1398 13.3892C19.1404 12.7938 19.6229 12.3113 20.2183 12.3108ZM19.1764 1.16178C20.0763 1.16184 20.8058 1.89138 20.8058 2.79127C20.8057 3.69115 20.0762 4.4207 19.1763 4.42064C18.2764 4.42058 17.5469 3.6911 17.5469 2.79121C17.548 1.89167 18.2769 1.16276 19.1764 1.16178ZM3.78976 6.6908C3.19445 6.69011 2.71201 6.20767 2.71132 5.61236C2.71132 5.01676 3.19416 4.53392 3.78976 4.53392C4.38536 4.53392 4.8682 5.01676 4.8682 5.61236C4.8682 6.20795 4.38541 6.6908 3.78976 6.6908ZM6.10659 22.5285C5.1083 22.5285 4.29906 21.7193 4.29912 20.721C4.29918 19.7227 5.10841 18.9134 6.1067 18.9135C7.10494 18.9136 7.91417 19.7228 7.91417 20.721C7.91308 21.7189 7.10442 22.5275 6.10659 22.5285ZM18.5658 20.1201C19.3221 20.121 19.935 20.7339 19.9359 21.4902C19.9359 22.2469 19.3225 22.8603 18.5658 22.8603C17.8091 22.8603 17.1957 22.2469 17.1957 21.4902C17.1957 20.7335 17.8091 20.1201 18.5658 20.1201ZM12.3766 14.5001C11.03 14.4986 9.93866 13.4073 9.93716 12.0607C9.93716 10.7134 11.0293 9.62125 12.3766 9.62125C13.7238 9.62125 14.816 10.7134 14.816 12.0607C14.816 13.4079 13.7238 14.5001 12.3766 14.5001Z" fill="#EF4444"/>
</g>
<defs>
<clipPath id="clip0_3606_11358">
<rect width="24" height="24" fill="white"/>
</clipPath>
</defs>
</svg>
