<svg width="24" height="24" viewBox="0 0 24 24" fill="none" xmlns="http://www.w3.org/2000/svg">
<path d="M13 21H3.4C3.17909 21 3 20.8209 3 20.6V3.4C3 3.17909 3.17909 3 3.4 3H20.6C20.8209 3 21 3.17909 21 3.4V13" stroke="#EF4444" stroke-linecap="round" stroke-linejoin="round"/>
<path d="M3 16L10 13L15.5 15.5" stroke="#EF4444" stroke-linecap="round" stroke-linejoin="round"/>
<path d="M16 10C14.8954 10 14 9.10457 14 8C14 6.89543 14.8954 6 16 6C17.1046 6 18 6.89543 18 8C18 9.10457 17.1046 10 16 10Z" stroke="#EF4444" stroke-linecap="round" stroke-linejoin="round"/>
<path d="M16 19H19M22 19H19M19 19V16M19 19V22" stroke="#EF4444" stroke-linecap="round" stroke-linejoin="round"/>
</svg>
