<svg width="52" height="52" viewBox="0 0 52 52" fill="none" xmlns="http://www.w3.org/2000/svg">
<path d="M48.6053 22.3439L38.4832 32.2109L40.8736 46.1469C40.9248 46.4458 40.8914 46.753 40.7771 47.0338C40.6628 47.3147 40.4722 47.5579 40.2269 47.7361C39.9816 47.9143 39.6914 48.0203 39.389 48.0422C39.0865 48.064 38.7841 48.0008 38.5157 47.8597L26 41.2801L13.4858 47.8581C13.2175 47.9992 12.915 48.0624 12.6126 48.0405C12.3102 48.0187 12.0199 47.9127 11.7746 47.7345C11.5293 47.5563 11.3387 47.313 11.2244 47.0322C11.1102 46.7514 11.0767 46.4442 11.128 46.1453L13.5183 32.2093L3.39458 22.3439C3.17728 22.1322 3.02358 21.8639 2.9509 21.5694C2.87821 21.2748 2.88943 20.9658 2.98328 20.6773C3.07714 20.3888 3.24988 20.1324 3.48196 19.937C3.71404 19.7416 3.99618 19.615 4.29645 19.5717L18.2861 17.5404L24.5423 4.86219C25.09 3.75232 26.9099 3.75232 27.4576 4.86219L33.7138 17.5404L47.7034 19.5717C48.003 19.6162 48.2843 19.7433 48.5156 19.9388C48.7469 20.1344 48.919 20.3906 49.0127 20.6786C49.1064 20.9666 49.118 21.275 49.046 21.5692C48.974 21.8634 48.8214 22.1317 48.6053 22.3439Z" fill="#B5B6B7"/>
</svg>
