<svg width="25" height="24" viewBox="0 0 25 24" fill="none" xmlns="http://www.w3.org/2000/svg">
<path d="M12.25 12C14.4591 12 16.25 10.2091 16.25 8C16.25 5.79086 14.4591 4 12.25 4C10.0409 4 8.25 5.79086 8.25 8C8.25 10.2091 10.0409 12 12.25 12Z" stroke="#DC2626" stroke-width="2" stroke-linecap="round" stroke-linejoin="round"/>
<path d="M5.25 20V19C5.25 15.134 8.38401 12 12.25 12C13.3236 12 14.3407 12.2417 15.25 12.6736" stroke="#DC2626" stroke-width="2" stroke-linecap="round" stroke-linejoin="round"/>
<path d="M16.8849 16.4151L17.924 14.2121C18.0573 13.9293 18.4427 13.9293 18.576 14.2121L19.6151 16.4151L21.9386 16.7706C22.2367 16.8162 22.3555 17.1997 22.1397 17.4198L20.4587 19.1334L20.8554 21.5543C20.9064 21.8652 20.5946 22.1022 20.3278 21.9554L18.25 20.8118L16.1722 21.9554C15.9054 22.1022 15.5936 21.8652 15.6446 21.5543L16.0413 19.1334L14.3603 17.4198C14.1445 17.1997 14.2633 16.8162 14.5614 16.7706L16.8849 16.4151Z" fill="#DC2626"/>
</svg>
