<svg width="143" height="149" viewBox="0 0 143 149" fill="none" xmlns="http://www.w3.org/2000/svg">
<g clip-path="url(#clip0_2127_183)">
<path d="M74.8669 25.8564C81.9942 25.8564 87.7721 20.0683 87.7721 12.9282C87.7721 5.78817 81.9942 3.50258e-06 74.8669 2.2564e-06C67.7396 1.01023e-06 61.9618 5.78816 61.9618 12.9282C61.9618 20.0683 67.7396 25.8564 74.8669 25.8564Z" fill="#7F1D1D"/>
<path d="M42.4535 33.4315C48.9613 33.4315 54.2369 28.1465 54.2369 21.627C54.2369 15.1076 48.9613 9.82251 42.4535 9.82251C35.9457 9.82251 30.67 15.1076 30.67 21.627C30.67 28.1465 35.9457 33.4315 42.4535 33.4315Z" fill="#7F1D1D"/>
<path d="M18.7232 56.0806C24.6115 56.0806 29.3849 51.2986 29.3849 45.3998C29.3849 39.5009 24.6115 34.719 18.7232 34.719C12.8349 34.719 8.06152 39.5009 8.06152 45.3998C8.06152 51.2986 12.8349 56.0806 18.7232 56.0806Z" fill="#991B1B"/>
<path d="M10.04 87.4283C15.3088 87.4283 19.58 83.1495 19.58 77.8713C19.58 72.5931 15.3088 68.3142 10.04 68.3142C4.7712 68.3142 0.499999 72.5931 0.499998 77.8713C0.499997 83.1495 4.7712 87.4283 10.04 87.4283Z" fill="#B91C1C"/>
<path d="M18.7232 118.776C23.3705 118.776 27.1379 115.002 27.1379 110.346C27.1379 105.691 23.3705 101.917 18.7232 101.917C14.076 101.917 10.3086 105.691 10.3086 110.346C10.3086 115.002 14.076 118.776 18.7232 118.776Z" fill="#DC2626"/>
<path d="M42.4535 141.421C46.4812 141.421 49.7464 138.15 49.7464 134.115C49.7464 130.08 46.4812 126.809 42.4535 126.809C38.4257 126.809 35.1605 130.08 35.1605 134.115C35.1605 138.15 38.4257 141.421 42.4535 141.421Z" fill="#EF4444"/>
<path d="M74.8669 149C78.2752 149 81.0381 146.232 81.0381 142.818C81.0381 139.403 78.2752 136.635 74.8669 136.635C71.4586 136.635 68.6957 139.403 68.6957 142.818C68.6957 146.232 71.4586 149 74.8669 149Z" fill="#F87171"/>
<path d="M107.28 139.174C110.069 139.174 112.33 136.909 112.33 134.115C112.33 131.321 110.069 129.057 107.28 129.057C104.492 129.057 102.231 131.321 102.231 134.115C102.231 136.909 104.492 139.174 107.28 139.174Z" fill="#FCA5A5"/>
<path d="M131.011 114.281C133.18 114.281 134.938 112.519 134.938 110.346C134.938 108.173 133.18 106.411 131.011 106.411C128.841 106.411 127.083 108.173 127.083 110.346C127.083 112.519 128.841 114.281 131.011 114.281Z" fill="#FCA5A5"/>
<path d="M139.698 80.6823C141.247 80.6823 142.504 79.4237 142.504 77.8712C142.504 76.3186 141.247 75.0601 139.698 75.0601C138.148 75.0601 136.891 76.3186 136.891 77.8712C136.891 79.4237 138.148 80.6823 139.698 80.6823Z" fill="#FECACA"/>
<path d="M131.011 47.0872C131.941 47.0872 132.695 46.3317 132.695 45.3998C132.695 44.4679 131.941 43.7124 131.011 43.7124C130.08 43.7124 129.326 44.4679 129.326 45.3998C129.326 46.3317 130.08 47.0872 131.011 47.0872Z" fill="#EFEFEF"/>
</g>
<defs>
<clipPath id="clip0_2127_183">
<rect width="142" height="149" fill="white" transform="translate(0.5)"/>
</clipPath>
</defs>
</svg>
