<svg width="302" height="100" viewBox="0 0 302 100" fill="none" xmlns="http://www.w3.org/2000/svg">
<g clip-path="url(#clip0_2159_751)">
<path d="M5.75698 40.2132C4.00247 40.2132 2.24796 40.1982 0.493454 40.2231C-1.5212e-06 40.2331 -0.05483 40.0936 0.0398737 39.6404C1.04672 34.9686 2.02865 30.2919 3.02055 25.6151C4.17693 20.1664 5.33829 14.7126 6.49966 9.26388C7.12769 6.31538 7.7657 3.37186 8.37878 0.423361C8.44856 0.0996234 8.57317 0.0149536 8.88719 0.0149536C12.4959 0.0249148 16.1046 0.0298953 19.7083 0.0149536C20.1121 0.0149536 20.1669 0.124526 20.0871 0.493089C19.2049 4.5423 18.3376 8.59151 17.4703 12.6457C16.8622 15.4946 16.2741 18.3534 15.671 21.2023C14.6541 25.9936 13.6274 30.78 12.6105 35.5663C12.3165 36.9459 12.0024 38.3156 11.7482 39.7052C11.6685 40.1534 11.4741 40.2331 11.0753 40.2281C9.30089 40.2082 7.52645 40.2182 5.752 40.2182L5.75698 40.2132Z" fill="white"/>
<path d="M301.85 46.922C301.332 44.1827 299.872 42.1158 297.434 40.7361C295.74 39.7749 293.88 39.3167 291.976 39.1523C288.403 38.8385 284.849 38.9979 281.429 40.2381C277.771 41.5679 274.895 43.8341 273.16 47.3852C272.173 49.4123 271.71 51.5838 271.64 53.8251C271.565 56.166 272.358 58.1831 274.152 59.7619C275.593 61.032 277.262 61.8936 279.017 62.6158C281.11 63.4725 283.239 64.2544 285.257 65.2854C285.935 65.634 286.578 66.0325 286.947 66.7347C287.465 67.7209 287.052 69.7131 286.135 70.7391C284.849 72.1735 283.189 72.308 281.469 71.9892C279.859 71.6954 279.146 70.7092 279.181 69.0656C279.191 68.6124 279.266 68.1542 279.351 67.706C279.431 67.2627 279.301 67.1033 278.828 67.1083C275.398 67.1232 271.969 67.1232 268.54 67.1083C268.121 67.1083 267.971 67.2926 267.907 67.6462C267.603 69.4093 267.383 71.1724 267.652 72.9754C268.071 75.8293 269.522 77.941 272.039 79.3406C274.386 80.6455 276.973 81.1037 279.6 81.2531C281.16 81.3428 282.73 81.3378 284.3 81.0838C286.593 80.7152 288.826 80.2221 290.91 79.1862C293.87 77.7169 296.183 75.6002 297.614 72.577C298.431 70.8437 298.78 69.0109 299.034 67.1282C299.463 63.9456 298.556 61.271 296.103 59.1742C294.14 57.4908 291.782 56.5146 289.389 55.633C287.864 55.0702 286.299 54.622 284.879 53.7952C284.275 53.4466 283.742 53.0282 283.583 52.316C283.308 51.1107 283.991 49.477 285.048 48.8246C286.319 48.0377 287.7 48.0576 289.09 48.3913C290.077 48.6304 290.616 49.2977 290.795 50.3088C290.92 51.016 290.83 51.7034 290.73 52.3857C290.67 52.7891 290.785 52.8738 291.144 52.8738C294.474 52.8688 297.803 52.8688 301.133 52.8738C301.487 52.8738 301.611 52.7343 301.671 52.3957C301.751 51.9225 301.751 51.4245 301.995 50.9862V47.2856C301.84 47.2059 301.87 47.0515 301.845 46.922H301.85Z" fill="white"/>
<path d="M214.125 0.00497437C206.987 0.0248967 199.85 0.0199161 192.717 0.0199161C191.6 0.0199161 190.484 0.0248967 189.367 0.0149355C189.063 0.00995494 188.889 0.0248966 188.814 0.418362C188.6 1.5888 188.301 2.74429 188.052 3.90477C187.025 8.77577 186.003 13.6468 184.971 18.5178C184.204 22.1436 183.426 25.7695 182.648 29.3954C181.931 32.7523 181.203 36.1042 180.5 39.4611C180.43 39.7948 180.306 39.8795 179.992 39.8745C178.975 39.8595 177.958 39.8446 176.941 39.8795C176.443 39.8994 176.338 39.7599 176.443 39.2818C177.016 36.6869 177.574 34.0871 178.128 31.4922C178.731 28.6582 179.309 25.8193 179.912 22.9854C180.685 19.3595 181.472 15.7386 182.25 12.1078C183.067 8.26775 183.87 4.42773 184.712 0.592682C184.827 0.0547801 184.677 0.00995494 184.214 0.00995494C180.889 0.0248967 177.559 0.0298772 174.23 0.00995494C173.786 0.00497437 173.622 0.129489 173.537 0.57276C173.103 2.72935 172.63 4.88096 172.176 7.03257C171.354 10.9324 170.536 14.8371 169.709 18.7369C169.525 19.6235 169.32 20.505 169.126 21.3916C168.647 19.4242 168.174 17.4768 167.7 15.5344C166.479 10.4841 165.288 5.4338 164.097 0.378518C164.027 0.0697218 163.887 0.0149355 163.613 0.0149355C159.845 0.0199161 156.077 0.0199161 152.308 0.0149355C152.014 0.0149355 151.92 0.0946247 151.86 0.39844C151.197 3.56609 150.504 6.71879 149.836 9.88146C149.019 13.7265 148.221 17.5715 147.409 21.4115C146.262 26.8254 145.106 32.2393 143.96 37.6482C143.655 39.0876 143.665 39.0925 142.19 39.0377C142.051 39.0377 141.911 39.0128 141.771 39.0377C141.323 39.0975 141.183 38.9132 141.193 38.47C141.238 36.677 141.437 34.8989 141.712 33.1308C142.031 31.0638 142.325 28.9969 141.941 26.91C141.562 24.878 140.55 23.339 138.467 22.6815C138.352 22.6467 138.193 22.6467 138.128 22.4973C138.242 22.318 138.437 22.3229 138.601 22.2681C140.341 21.7203 141.886 20.8337 143.152 19.5189C146.118 16.4508 147.125 12.6556 147.05 8.5367C146.98 4.9208 145.006 2.54507 141.707 1.22023C139.768 0.438284 137.729 0.0547801 135.646 0.0398384C130.183 0.00497437 124.72 0.0248967 119.257 0.0248967C118.635 0.0248967 118.265 0.320411 118.145 0.911439C118.09 1.16047 118.051 1.41448 117.996 1.66849C117.218 5.27442 116.436 8.87538 115.668 12.4863C115.075 15.2804 114.502 18.0745 113.909 20.8686C112.927 25.4856 111.94 30.1026 110.943 34.7146C110.265 37.8524 109.562 40.9901 108.874 44.1279C108.341 46.5684 107.798 49.0039 107.279 51.4444C106.736 54.0044 106.233 56.5694 105.684 59.1294C105.141 61.6894 104.563 64.2444 104 66.7995C103.386 69.5936 102.773 72.3877 102.145 75.1818C102.031 75.7097 102.255 75.6848 102.649 75.6051C106.053 74.878 109.462 74.1658 112.867 73.4436C113.161 73.3788 113.256 73.3738 113.176 73.7324C112.653 76.0932 112.159 78.464 111.646 80.8347C111.102 83.3748 110.544 85.9149 109.996 88.46C109.383 91.3139 108.775 94.1677 108.162 97.0266C107.952 97.9978 107.743 98.974 107.534 99.9502C107.578 99.9701 107.623 99.9851 107.668 100.005C112.099 92.2851 116.53 84.5652 120.991 76.8005C121.485 77.3732 121.909 77.9012 122.422 78.3345C124.839 80.3715 127.775 80.9842 130.786 81.2581C133.497 81.5071 136.189 81.1834 138.821 80.4712C141.702 79.6842 144.229 78.2847 146.252 76.0584C149.009 73.0202 150.509 69.3446 151.645 65.4846C152.264 63.3928 152.598 61.2312 153.131 59.1144C153.24 58.6662 153.031 58.6114 152.667 58.6114C150.355 58.6214 148.042 58.6164 145.729 58.6164H137.774C137.48 58.6164 137.181 58.5616 137.091 58.9949C136.598 61.3806 136.089 63.7663 135.576 66.152C135.491 66.5505 135.606 66.6849 136.019 66.675C137.116 66.655 138.213 66.67 139.309 66.67C139.887 66.67 140.108 66.9489 139.972 67.5067C139.175 70.7839 136.812 72.3877 133.462 71.9245C132.276 71.7601 131.324 70.8387 131.035 69.6733C130.616 67.9699 130.98 66.3213 131.324 64.6678C131.738 62.6457 132.166 60.6285 132.615 58.6214C133.039 56.7287 133.288 54.7913 133.976 52.9634C134.773 50.8268 136.089 49.1882 138.507 48.8843C141.148 48.5556 142.843 49.5667 142.664 52.5351C142.624 53.2025 142.504 53.8799 142.28 54.5174C142.105 55.0254 142.27 55.1698 142.793 55.1649C146.302 55.1499 149.811 55.1499 153.32 55.1698C153.779 55.1698 153.958 55.0055 154.033 54.5871C154.342 52.7592 154.626 50.9314 154.472 49.0736C154.217 46.0404 153.151 43.4057 150.639 41.5081C150.011 41.03 149.333 40.6515 148.63 40.2679C148.809 40.2181 148.984 40.2181 149.153 40.2181C150.768 40.2181 152.383 40.1932 153.998 40.2331C154.492 40.243 154.656 40.0538 154.736 39.6205C154.935 38.5297 155.155 37.439 155.389 36.3582C156.381 31.6615 157.373 26.9648 158.384 22.2781C158.624 21.1674 158.753 20.0269 159.122 18.8664C160.717 25.9289 162.516 32.8568 164.176 39.8745H160.802C159.954 39.8745 159.959 39.8894 159.79 40.7411C159.456 42.4146 159.102 44.0781 158.748 45.7466C158.335 47.7039 157.911 49.6613 157.492 51.6187C156.999 53.9247 156.51 56.2357 156.017 58.5417C155.538 60.773 155.055 62.9993 154.581 65.2306C154.098 67.4968 153.619 69.7679 153.146 72.0341C152.602 74.6339 152.074 77.2388 151.511 79.8386C151.431 80.2072 151.521 80.3018 151.86 80.3018C155.508 80.2968 159.157 80.2968 162.806 80.3018C163.115 80.3018 163.274 80.1823 163.339 79.8735C163.847 77.4679 164.371 75.0672 164.879 72.6666C165.567 69.4292 166.245 66.1869 166.933 62.9495C167.715 59.2439 168.513 55.5434 169.295 51.8428C170.088 48.0974 170.87 44.352 171.653 40.6066C171.698 40.4024 171.753 40.2181 172.017 40.2181H175.67C175.301 42.041 174.992 43.8191 174.579 45.5723C173.811 48.8495 173.183 52.1616 172.455 55.4537C172.027 57.3912 171.623 59.3286 171.209 61.271C170.806 63.1487 170.392 65.0264 169.993 66.9041C169.5 69.235 169.016 71.5609 168.523 73.8918C168.109 75.8492 167.7 77.8115 167.272 79.7639C167.182 80.1624 167.257 80.3068 167.68 80.3018C171.149 80.2919 174.619 80.2968 178.088 80.3018C178.387 80.3018 178.526 80.2271 178.596 79.8835C178.995 77.9261 179.453 75.9737 179.862 74.0163C180.789 69.5737 181.706 65.126 182.629 60.6783C182.733 60.1703 182.853 59.6673 182.962 59.1593C183.262 60.1753 183.451 61.1664 183.685 62.1476C184.368 64.9766 185.076 67.8056 185.769 70.6345C186.521 73.6926 187.294 76.7507 188.012 79.8187C188.126 80.3068 188.366 80.3018 188.719 80.2968H198.589C199.107 80.2968 199.715 80.4463 200.114 80.2271C200.547 79.988 200.423 79.2957 200.567 78.8076C200.617 78.6383 200.652 78.464 200.687 78.2897C201.106 76.3323 201.519 74.37 201.938 72.4126C202.422 70.1663 202.91 67.9201 203.384 65.6689C203.912 63.1686 204.425 60.6584 204.954 58.1582C205.512 55.5234 206.085 52.8887 206.648 50.254C207.072 48.2966 207.496 46.3393 207.914 44.3819C208.199 43.062 208.468 41.7422 208.757 40.4223C208.851 39.999 208.722 39.8297 208.278 39.8645C207.964 39.8944 207.64 39.8745 207.321 39.8745C206.633 39.8745 206.648 39.8745 206.793 39.1921C207.356 36.5923 207.889 33.9924 208.468 31.3975C208.587 30.8547 208.478 30.7351 207.919 30.7351C203.473 30.76 199.027 30.7451 194.581 30.76C194.133 30.76 194.048 30.6455 194.147 30.2221C194.571 28.3893 194.99 26.5514 195.364 24.7036C195.463 24.2205 195.668 24.1309 196.121 24.1309C199.904 24.1508 203.693 24.1408 207.481 24.1458C207.835 24.1458 208.064 24.1159 208.154 23.6826C208.652 21.1923 209.185 18.712 209.704 16.2267C209.843 15.5394 209.838 15.5394 209.141 15.5394C205.392 15.5394 201.644 15.5294 197.901 15.5494C197.387 15.5543 197.313 15.4149 197.422 14.9517C197.806 13.2882 198.18 11.6197 198.499 9.9462C198.589 9.47305 198.738 9.33857 199.217 9.33857C203.543 9.3585 207.87 9.34355 212.196 9.36348C212.625 9.36846 212.784 9.229 212.869 8.84052C213.447 6.1012 214.03 3.36686 214.638 0.637507C214.743 0.154392 214.668 0.00995494 214.125 0.00995494V0.00497437ZM128.852 42.7682C126.19 44.86 124.356 47.5595 123.04 50.6475C122.033 53.0182 121.445 55.4986 120.922 58.0088C120.463 60.2201 119.99 62.4265 119.521 64.6379C119.486 64.7973 119.446 64.9467 119.421 65.1061C119.247 66.1918 119.242 66.1819 118.13 66.3811C117.408 66.5156 116.695 66.675 115.897 66.8393C116.107 65.8432 116.306 64.882 116.51 63.9257C116.929 61.9285 117.348 59.9313 117.776 57.934C118.185 56.0165 118.609 54.099 119.013 52.1815C119.506 49.8506 119.975 47.5197 120.473 45.1937C120.817 43.5651 121.285 41.9564 121.535 40.3178C121.968 37.434 122.746 34.625 123.294 31.7661C123.573 30.2869 123.932 28.8176 124.246 27.3434C124.291 27.1242 124.366 26.9798 124.625 26.9897C125.856 27.0445 127.097 26.8752 128.323 27.1242C129.814 27.433 130.512 28.2448 130.561 29.7689C130.601 30.9045 130.412 32.0251 130.287 33.1507C130.048 35.3023 129.734 37.4489 129.739 39.6205C129.739 40.0986 129.884 40.243 130.357 40.2231C131.314 40.1883 132.271 40.2132 133.223 40.2132C131.653 40.9104 130.183 41.7273 128.852 42.7682ZM133.373 17.1083C132.645 18.1442 131.543 18.6273 130.312 18.7668C129.001 18.9112 127.68 18.8066 126.37 18.8365C126.031 18.8465 126.046 18.727 126.105 18.448C126.763 15.4248 127.411 12.3966 128.034 9.36846C128.094 9.06962 128.224 9.02978 128.468 9.03476C129.126 9.04472 129.784 9.03974 130.571 9.03974C131.334 9.08456 132.236 8.95009 133.123 9.17919C134.2 9.45811 134.903 10.1454 134.958 11.2461C135.057 13.3579 134.604 15.3601 133.373 17.1083ZM196.979 40.2082C197.342 40.2082 197.497 40.2231 197.392 40.6913C196.819 43.2812 196.301 45.886 195.752 48.4859C195.154 51.2949 194.541 54.099 193.943 56.9081C193.649 58.2827 193.38 59.6623 193.096 61.0419C193.086 61.0917 193.036 61.1316 192.986 61.2013C191.436 54.1787 189.662 47.2457 188.042 40.2132H190.105C192.398 40.2132 194.686 40.2181 196.979 40.2082Z" fill="white"/>
<path d="M114.636 0.0199223C106.462 0.0199223 98.2924 0.0298835 90.118 0C89.5348 0 89.4002 0.224126 89.3006 0.702261C88.8769 2.82399 88.4333 4.93575 87.9797 7.0525C87.2071 10.6784 86.4146 14.2992 85.642 17.9251C85.0489 20.7192 84.4707 23.5133 83.8775 26.3074C82.9504 30.6704 82.0084 35.0334 81.0912 39.3964C81.0115 39.7749 80.8769 39.8844 80.5081 39.8745C79.3318 39.8546 78.1554 39.8745 76.9791 39.8745C76.0969 39.8745 76.1168 39.8745 75.9324 40.761C75.3991 43.341 74.8458 45.9159 74.2975 48.4959C73.824 50.7023 73.3355 52.9087 72.867 55.12C72.4583 57.0575 72.0844 59.0049 71.6757 60.9423C71.1773 63.2882 70.6639 65.634 70.1604 67.9749C69.672 70.246 69.1785 72.5122 68.695 74.7784C68.3362 76.4668 67.9972 78.1602 67.6284 79.8436C67.5486 80.2022 67.6633 80.3068 68.0072 80.3068C71.6558 80.3018 75.3044 80.3018 78.948 80.3068C79.267 80.3068 79.4165 80.1823 79.4813 79.8735C79.7305 78.6931 79.9947 77.5127 80.2489 76.3323C80.8969 73.3489 81.5498 70.3706 82.1828 67.3822C82.2377 67.1282 82.3174 67.0485 82.5616 67.0535C83.5386 67.0635 84.5155 67.0186 85.4875 67.0734C87.5311 67.1929 88.4731 68.1691 88.3934 70.2062C88.3386 71.6555 88.1193 73.0949 87.9598 74.5343C87.7654 76.2725 87.556 78.0058 87.571 79.7639C87.576 80.1175 87.6557 80.3118 88.0744 80.3118C91.6831 80.2968 95.2868 80.2968 98.8955 80.3118C99.2893 80.3118 99.3591 80.1773 99.3043 79.8087C99.2195 79.221 99.1248 78.6333 99.1547 78.0307C99.2494 76.1829 99.4887 74.35 99.7778 72.5222C100.077 70.6096 100.271 68.7021 99.8874 66.7746C99.5286 64.9766 98.6214 63.587 96.8968 62.8001C96.6476 62.6855 96.3286 62.7104 96.1242 62.4913C96.1591 62.4365 96.1641 62.4116 96.179 62.4066C96.2538 62.3767 96.3286 62.3518 96.4033 62.3269C99.1497 61.535 101.233 59.8665 102.748 57.4758C104.324 54.9955 104.972 52.2213 105.071 49.3326C105.201 45.5972 103.551 42.8828 100.127 41.294C99.1547 40.8457 98.1329 40.5419 97.1012 40.2132H97.6345C100.525 40.2132 103.416 40.2181 106.307 40.2181C107.155 40.2181 107.145 40.2132 107.319 39.3914C107.882 36.7118 108.451 34.0373 109.029 31.3627C109.124 30.9244 109.099 30.7351 108.55 30.7401C104.104 30.76 99.6582 30.7401 95.2121 30.765C94.7186 30.765 94.604 30.6305 94.7086 30.1723C95.1223 28.3594 95.551 26.5415 95.9149 24.7136C96.0145 24.2305 96.194 24.1309 96.6526 24.1309C100.401 24.1508 104.149 24.1309 107.897 24.1508C108.426 24.1558 108.65 24.0313 108.755 23.4735C109.218 21.038 109.727 18.6074 110.265 16.1919C110.39 15.634 110.295 15.5245 109.737 15.5294C105.968 15.5494 102.205 15.5344 98.437 15.5494C98.0033 15.5494 97.8339 15.5095 97.9585 14.9965C98.3672 13.323 98.746 11.6396 99.065 9.94621C99.1597 9.41329 99.3691 9.33858 99.8376 9.34356C104.044 9.3585 108.251 9.35352 112.458 9.35352C113.32 9.35352 113.305 9.34854 113.49 8.49188C114.038 5.89202 114.596 3.29216 115.165 0.697281C115.319 0.0149417 115.349 0.0249029 114.636 0.0249029V0.0199223ZM92.8544 52.2462C92.665 53.6906 92.3759 55.135 91.6382 56.4449C90.8906 57.7797 89.7392 58.4919 88.2439 58.6662C86.913 58.8256 85.5772 58.7011 84.2464 58.7509C84.0021 58.7559 83.9623 58.6961 84.0171 58.4421C84.6451 55.5185 85.2582 52.5899 85.8663 49.6663C85.961 49.1981 86.1454 48.9441 86.6937 49.0138C87.2021 49.0836 87.7305 49.0288 88.2439 49.0288V49.0736C88.9417 49.0736 89.6445 49.0039 90.3323 49.0836C92.2463 49.3077 93.1037 50.3387 92.8544 52.2462Z" fill="white"/>
<path d="M243.952 0.0149477C234.721 0.0199283 225.489 0.0199283 216.263 0.00996716C215.899 0.00996716 215.79 0.134482 215.725 0.4632C215.147 3.28221 214.569 6.09623 213.941 8.9003C213.816 9.44816 213.916 9.53781 214.434 9.53283C216.866 9.51291 219.299 9.53781 221.731 9.51291C222.205 9.50793 222.245 9.65236 222.14 10.0608C221.921 10.9224 221.741 11.799 221.557 12.6756C220.615 17.0933 219.673 21.5161 218.731 25.9339C217.764 30.4961 216.812 35.0533 215.825 39.6105C215.715 40.1036 215.795 40.2331 216.303 40.2231C217.759 40.1933 219.209 40.2132 220.764 40.2132C220.689 40.3726 220.66 40.4423 220.63 40.507C217.475 47.1611 214.319 53.8101 211.164 60.4642C208.129 66.8642 205.098 73.2693 202.063 79.6693C201.779 80.267 201.789 80.2919 202.442 80.2919C206.19 80.2919 209.938 80.2869 213.686 80.3018C214.09 80.3068 214.279 80.1674 214.429 79.8038C215.212 77.8962 216.024 75.9986 216.817 74.091C216.941 73.7872 217.041 73.5581 217.47 73.5581C220.341 73.583 223.212 73.578 226.083 73.5631C226.476 73.5631 226.581 73.6577 226.571 74.0662C226.536 75.9538 226.551 77.8414 226.526 79.734C226.521 80.1225 226.601 80.3018 227.05 80.3018C230.758 80.2869 234.461 80.2869 238.17 80.2969C238.588 80.3018 238.713 80.1823 238.688 79.749C238.499 76.1729 238.364 72.5969 238.16 69.0208C237.891 64.1946 237.716 59.3685 237.427 54.5423C237.143 49.9203 236.993 45.2834 236.789 40.6564C236.749 39.8695 236.744 39.8695 235.922 39.8695C233.29 39.8695 230.658 39.8596 228.031 39.8695C227.623 39.8745 227.468 39.8247 227.578 39.3565C227.937 37.7926 228.246 36.2138 228.585 34.6449C229.517 30.3217 230.459 26.0036 231.391 21.6805C232.223 17.8205 233.061 13.9655 233.858 10.0956C233.968 9.57267 234.177 9.50793 234.636 9.50793C237.048 9.53283 239.461 9.51789 241.873 9.52287C242.182 9.52287 242.441 9.54777 242.526 9.11944C243.119 6.22573 243.722 3.33201 244.355 0.443277C244.45 5.99399e-06 244.271 0.00996716 243.952 0.00996716V0.0149477ZM226.686 62.2572C226.671 62.9545 226.646 63.6468 226.656 64.3441C226.661 64.6329 226.616 64.7873 226.277 64.7873C224.542 64.7724 222.813 64.7724 221.078 64.7873C220.655 64.7873 220.799 64.5931 220.889 64.3839C222.05 61.5848 223.192 58.7808 224.378 55.9916C225.17 54.1289 225.903 52.2462 226.621 50.3536C226.661 50.2441 226.661 50.1146 226.855 50.0697C226.646 54.1488 226.785 58.208 226.686 62.2572Z" fill="white"/>
<path d="M266.352 70.7092C262.942 70.7291 259.533 70.7192 256.124 70.7192C255.585 70.7192 255.047 70.7142 254.509 70.7192C254.234 70.7242 254.105 70.6744 254.175 70.3456C254.509 68.8365 254.828 67.3274 255.152 65.8133C255.59 63.7763 256.034 61.7392 256.467 59.7022C256.871 57.8046 257.27 55.902 257.674 54.0044C258.162 51.7183 258.661 49.4322 259.144 47.1411C259.613 44.9298 260.056 42.7134 260.53 40.502C260.669 39.8496 260.694 39.8546 259.996 39.8546C256.587 39.8546 253.178 39.8546 249.768 39.8546C248.806 39.8546 248.826 39.8546 248.637 40.7809C248.223 42.7782 247.785 44.7704 247.366 46.7676C246.957 48.705 246.549 50.6475 246.14 52.5849C245.666 54.8162 245.193 57.0475 244.719 59.2738C244.226 61.5798 243.722 63.8809 243.234 66.1869C242.825 68.1094 242.441 70.0319 242.033 71.9544C241.484 74.5144 240.936 77.0694 240.358 79.6245C240.233 80.1723 240.393 80.2968 240.931 80.2919C244.819 80.2719 248.707 80.2819 252.595 80.2819C255.585 80.2819 258.576 80.2819 261.567 80.2819C262.544 80.2819 263.52 80.2819 264.497 80.2819C264.767 80.2819 264.991 80.2819 265.066 79.9183C265.659 77.0644 266.252 74.2106 266.895 71.3716C267.024 70.7989 266.885 70.6943 266.347 70.6993L266.352 70.7092Z" fill="white"/>
<path d="M87.1523 0.00976562C77.9212 0.0197268 68.695 0.0197268 59.4639 0.0147462C59.13 0.0147462 59.0004 0.0844743 58.9306 0.448056C58.3674 3.22722 57.7742 6.0014 57.1861 8.78056C57.0266 9.52765 57.0216 9.52267 57.7942 9.52267C60.1468 9.52267 62.4994 9.53263 64.8521 9.51769C65.3056 9.51271 65.4851 9.53761 65.3405 10.0954C64.9966 11.4153 64.7524 12.765 64.4683 14.1048C63.6159 18.1391 62.7636 22.1783 61.9063 26.2126C61.034 30.3265 60.1468 34.4355 59.2795 38.5495C59.1948 38.9479 59.12 39.2169 58.6016 39.1073C58.1979 39.0226 57.7692 39.0525 57.3505 39.0425C55.9948 39.0027 54.639 39.0077 53.2883 39.177C51.763 39.3663 50.2528 39.6751 48.7375 40.2279C48.7624 40.0586 48.7724 39.964 48.7923 39.8693C49.1313 38.3004 49.4852 36.7365 49.8141 35.1627C50.8459 30.2967 51.8677 25.4207 52.8995 20.5546C53.6671 16.9238 54.4446 13.2979 55.2172 9.67208C55.8752 6.58911 56.5331 3.50613 57.216 0.428134C57.3057 0.00976565 57.1213 0.0147462 56.8222 0.0147462C53.4178 0.0197268 50.0085 0.0247074 46.5992 0.00976562C46.2254 0.00976562 46.0658 0.114358 46.011 0.48292C45.9113 1.1304 45.7817 1.77289 45.6422 2.41538C44.6054 7.26148 43.5687 12.1076 42.5269 16.9587C42.2079 18.4479 41.8939 19.9371 41.5799 21.4262C41.1114 19.4639 40.6428 17.5215 40.1793 15.579C38.9581 10.5088 37.7568 5.43859 36.5556 0.363387C36.4908 0.104397 36.3812 0.0147462 36.112 0.0147462C32.3239 0.0197268 28.5357 0.0197268 24.7476 0.0147462C24.4884 0.0147462 24.3887 0.0695326 24.3289 0.358406C23.6111 3.75018 22.8635 7.14195 22.1407 10.5337C21.0292 15.7285 19.9326 20.9282 18.8311 26.1279C17.8741 30.6303 16.932 35.1328 15.9551 39.6303C15.8404 40.1532 15.98 40.2229 16.4485 40.2229C19.7582 40.203 23.0678 40.1931 26.3775 40.2279C26.9606 40.2379 27.1351 40.0088 27.2198 39.5207C27.3793 38.6242 27.5588 37.7277 27.7482 36.8361C28.775 31.9851 29.8117 27.139 30.8385 22.2879C31.0728 21.1772 31.2871 20.0616 31.5114 18.9459C31.8105 19.8474 31.9799 20.7539 32.1992 21.6454C33.0715 25.2513 33.9587 28.8473 34.836 32.4483C35.4242 34.8589 36.0223 37.2645 36.5855 39.6801C36.6902 40.1233 36.8846 40.2229 37.3132 40.2229C40.8621 40.203 44.411 40.208 47.9599 40.213C48.1294 40.213 48.3338 40.1383 48.5032 40.3176C44.3761 41.9114 41.53 44.8101 39.5363 48.6252C38.1307 51.3197 37.2833 54.1984 36.6603 57.1619C36.0721 59.9759 35.3544 62.765 34.8958 65.604C34.4871 68.1391 34.4622 70.6692 35.145 73.1645C35.798 75.5502 37.1288 77.4727 39.2073 78.8622C41.6447 80.4959 44.411 81.0736 47.2721 81.2679C49.1612 81.3974 51.0353 81.233 52.9094 80.8744C55.7555 80.3265 58.3574 79.3055 60.6203 77.4776C63.0128 75.5452 64.6676 73.0649 65.9088 70.2957C66.9754 67.9149 67.7031 65.4247 68.2066 62.8696C68.8695 59.5077 69.8365 56.2006 70.1455 52.769C70.305 50.971 70.2452 49.183 69.8165 47.4348C68.9991 44.0978 66.9904 41.7121 63.8203 40.2329C63.9349 40.2279 64.0446 40.213 64.1543 40.213C66.1281 40.208 68.1019 40.203 70.0757 40.218C70.4595 40.2229 70.6091 40.1383 70.6988 39.7199C71.2371 37.135 71.8352 34.57 72.3885 31.99C73.51 26.7754 74.6165 21.5607 75.733 16.3411C76.1816 14.2492 76.6551 12.1624 77.0738 10.0606C77.1635 9.59737 77.3529 9.51271 77.7716 9.51769C80.204 9.53263 82.6364 9.52267 85.0688 9.52765C85.3729 9.52765 85.632 9.56251 85.7218 9.12422C86.3099 6.25043 86.928 3.38162 87.551 0.512804C87.6358 0.129299 87.5809 0.00976562 87.1523 0.00976562ZM86.7286 1.23499C86.28 3.18239 85.9112 5.14972 85.4327 7.09214C85.338 7.47067 85.3031 7.86911 85.2532 8.2576C85.2034 8.67099 85.0389 8.86523 84.5654 8.86025C82.2526 8.83535 79.9399 8.85029 77.6271 8.85029C76.8047 8.85029 76.4458 9.05947 76.4458 9.8464C76.4458 10.8525 76.0171 11.7291 75.8377 12.6754C75.4589 14.6626 74.9804 16.6299 74.5617 18.6122C74.3025 19.8374 73.9984 21.0627 73.7791 22.3028C73.4601 24.1257 72.9218 25.9137 72.5978 27.7366C72.3486 29.1362 71.9947 30.5108 71.7206 31.9004C71.5461 32.7869 71.4614 33.7034 71.1125 34.5451C70.9679 34.8937 71.0228 35.2523 70.9729 35.601C70.8433 36.5722 70.3648 37.4587 70.3897 38.4847C70.4097 39.2467 69.9661 39.5257 69.1686 39.5257C67.2944 39.5257 65.4203 39.5207 63.5462 39.5306C62.8533 39.5306 62.5642 39.9291 62.7586 40.5118C62.8384 40.7608 63.0128 40.8654 63.2222 40.9302C65.3854 41.5627 66.9306 42.9374 68.077 44.8449C68.7549 45.9705 68.9642 47.2456 69.353 48.4658C69.5075 48.9439 69.4975 49.4021 69.4776 49.8902C69.4427 50.5427 69.5773 51.225 69.4377 51.8526C69.3031 52.4752 69.8763 52.9981 69.4876 53.6705C69.1835 54.1885 69.1686 54.8808 69.0589 55.5033C68.6552 57.8343 68.0221 60.1253 67.5935 62.4513C67.1349 64.9316 66.4521 67.3372 65.4701 69.6482C64.5979 71.7052 63.4564 73.6127 61.9362 75.3061C60.406 77.0095 58.6016 78.2945 56.5082 79.1511C54.8035 79.8484 53.0191 80.3365 51.145 80.3564C50.7113 80.3614 50.2777 80.4261 49.849 80.4959C49.7045 80.5208 49.535 80.6204 49.4503 80.7349C48.9618 81.3625 48.1743 81.3525 47.631 80.7549C47.2571 80.3415 46.664 80.3863 46.1755 80.3714C43.8428 80.2867 41.6796 79.6591 39.7307 78.3891C38.2354 77.4129 37.0042 76.1777 36.3313 74.4594C35.7531 72.9951 35.4291 71.501 35.3594 69.9221C35.2597 67.8552 35.484 65.838 35.9276 63.8209C36.4908 61.2659 36.9693 58.681 37.5625 56.1309C38.0709 53.9394 38.7537 51.7978 39.7357 49.7558C40.5082 48.1421 41.4403 46.6529 42.5867 45.2732C44.3263 43.1814 46.5144 41.757 49.0565 40.8455C50.5668 40.3076 52.1219 39.9689 53.7368 39.8643C54.2752 39.8295 54.9182 39.8693 55.277 39.2617C55.3568 39.1272 55.5312 39.1621 55.6658 39.172C56.4434 39.2268 57.1861 39.0674 57.9537 39.6303C58.9007 40.3126 59.5985 39.9092 59.9474 38.5345C60.3362 37.0055 60.6702 35.4565 60.9293 33.9026C61.1437 32.6226 61.4577 31.3575 61.7318 30.0924C62.1455 28.1899 62.5243 26.2723 62.963 24.3747C63.4814 22.1634 63.92 19.9371 64.3785 17.7207C64.6477 16.4307 64.9817 15.1557 65.1711 13.8408C65.3356 12.6754 65.6795 11.5348 65.9437 10.3843C65.9686 10.2698 65.9935 10.1502 65.9985 10.0357C66.0583 8.925 65.9885 8.85029 64.872 8.85029C62.7387 8.85029 60.6054 8.83535 58.472 8.86025C57.9786 8.86523 57.8739 8.73573 57.9786 8.26258C58.3424 6.62895 58.6764 4.99034 59.0004 3.34675C59.1449 2.60963 59.3244 1.87748 59.4739 1.14534C59.5786 0.602454 59.8378 0.607435 60.2415 0.607435C64.548 0.617396 68.8545 0.612415 73.1611 0.612415C77.4676 0.612415 81.8489 0.617396 86.1953 0.607435C86.6738 0.607435 86.8632 0.647279 86.7286 1.23499Z" fill="white"/>
<path d="M86.1953 0.607637C81.8489 0.617598 77.5025 0.612618 73.1611 0.612618C68.8196 0.612618 64.548 0.617598 60.2415 0.607637C59.8378 0.607637 59.5786 0.602656 59.4739 1.14554C59.3244 1.87768 59.1449 2.60983 59.0004 3.34695C58.6764 4.99054 58.3424 6.62915 57.9786 8.26278C57.8739 8.73594 57.9786 8.86543 58.472 8.86045C60.6054 8.83555 62.7387 8.85049 64.872 8.85049C65.9885 8.85049 66.0583 8.9252 65.9985 10.0359C65.9935 10.1504 65.9686 10.27 65.9436 10.3845C65.6795 11.535 65.3356 12.6756 65.1711 13.841C64.9817 15.1559 64.6477 16.4309 64.3785 17.7209C63.92 19.9373 63.4814 22.1636 62.963 24.3749C62.5243 26.2725 62.1455 28.1901 61.7318 30.0926C61.4577 31.3577 61.1437 32.6228 60.9293 33.9028C60.6701 35.4567 60.3362 37.0057 59.9474 38.5347C59.5985 39.9094 58.9007 40.3128 57.9536 39.6304C57.1861 39.0676 56.4434 39.227 55.6658 39.1722C55.5312 39.1623 55.3568 39.1274 55.277 39.2619C54.9181 39.8695 54.2752 39.8297 53.7368 39.8645C52.1219 39.9691 50.5668 40.3078 49.0565 40.8457C46.5144 41.7572 44.3263 43.1816 42.5867 45.2734C41.4403 46.6531 40.5082 48.1423 39.7357 49.756C38.7537 51.798 38.0709 53.9396 37.5625 56.1311C36.9693 58.6811 36.4908 61.2661 35.9276 63.8211C35.484 65.8382 35.2597 67.8554 35.3594 69.9223C35.4291 71.5011 35.7531 72.9953 36.3313 74.4596C37.0042 76.1779 38.2354 77.4131 39.7307 78.3893C41.6796 79.6593 43.8428 80.2869 46.1755 80.3716C46.664 80.3865 47.2571 80.3417 47.631 80.7551C48.1743 81.3527 48.9618 81.3627 49.4503 80.7351C49.535 80.6206 49.7045 80.521 49.849 80.4961C50.2777 80.4263 50.7113 80.3616 51.145 80.3566C53.0191 80.3367 54.8035 79.8486 56.5082 79.1513C58.6016 78.2946 60.406 77.0097 61.9362 75.3063C63.4564 73.6129 64.5979 71.7053 65.4701 69.6484C66.4521 67.3374 67.1349 64.9318 67.5935 62.4514C68.0221 60.1255 68.6552 57.8344 69.0589 55.5035C69.1686 54.881 69.1835 54.1887 69.4876 53.6707C69.8763 52.9983 69.3031 52.4754 69.4377 51.8528C69.5773 51.2252 69.4427 50.5429 69.4776 49.8904C69.4975 49.4023 69.5075 48.9441 69.353 48.466C68.9642 47.2457 68.7549 45.9707 68.077 44.8451C66.9306 42.9375 65.3854 41.5629 63.2222 40.9304C63.0128 40.8656 62.8384 40.761 62.7586 40.512C62.5642 39.9293 62.8533 39.5308 63.5462 39.5308C65.4203 39.5209 67.2944 39.5259 69.1686 39.5259C69.9661 39.5259 70.4097 39.2469 70.3897 38.4849C70.3648 37.4589 70.8433 36.5724 70.9729 35.6012C71.0228 35.2525 70.9679 34.8939 71.1125 34.5453C71.4614 33.7036 71.5461 32.7871 71.7206 31.9006C71.9947 30.511 72.3486 29.1364 72.5978 27.7368C72.9218 25.9139 73.4601 24.1259 73.7791 22.303C73.9984 21.0629 74.3025 19.8376 74.5617 18.6124C74.9804 16.6301 75.4589 14.6628 75.8377 12.6756C76.0171 11.7293 76.4458 10.8527 76.4458 9.8466C76.4458 9.05967 76.8047 8.85049 77.6271 8.85049C79.9399 8.85049 82.2526 8.83555 84.5654 8.86045C85.0389 8.86543 85.2034 8.67119 85.2532 8.2578C85.3031 7.86932 85.338 7.47087 85.4327 7.09235C85.9112 5.14992 86.28 3.18259 86.7286 1.23519C86.8632 0.647482 86.6738 0.607637 86.1953 0.607637ZM57.5649 57.1172C57.1412 59.0945 56.7275 61.0768 56.2938 63.0491C55.8702 64.9617 55.5512 66.9041 54.5742 68.6473C53.368 70.7989 50.9805 71.8 48.6229 71.1226C47.5213 70.8039 46.7288 69.748 46.6341 68.4182C46.6091 68.0446 46.6291 67.6661 46.6291 67.2876C46.5593 65.5344 47.1126 63.8809 47.4515 62.1925C47.8453 60.2152 48.2989 58.2429 48.7325 56.2705C49.1562 54.3331 49.52 52.3757 50.7861 50.7471C52.0621 49.0985 54.649 48.4311 56.568 49.2579C57.6945 49.746 58.1082 50.7023 58.2128 51.8229C58.3873 53.6308 57.9437 55.374 57.5649 57.1172Z" fill="white"/>
</g>
<defs>
<clipPath id="clip0_2159_751">
<rect width="302" height="100" fill="white"/>
</clipPath>
</defs>
</svg>
