<svg width="52" height="52" viewBox="0 0 52 52" fill="none" xmlns="http://www.w3.org/2000/svg">
<path d="M46.8131 11.7993H35.6137V7.28647C35.6137 5.13769 33.8655 3.38965 31.7168 3.38965H20.2824C18.1336 3.38965 16.3855 5.13769 16.3855 7.28647V11.7993H5.18611C2.33315 11.7993 0.0120156 14.1204 0.0120156 16.9734C0.0120156 19.5649 -0.253383 21.8922 1.71045 24.5095C2.82156 25.9903 4.34845 27.0466 6.126 27.5641L23.3872 32.5898C25.0932 33.0873 26.9058 33.0873 28.6118 32.5898L45.873 27.5641C47.6505 27.0465 49.1774 25.9903 50.2885 24.5095C52.2612 21.8804 51.9869 19.5292 51.9869 16.9734C51.9871 14.1204 49.666 11.7993 46.8131 11.7993ZM19.6862 7.28647C19.6864 7.12842 19.7493 6.97689 19.8611 6.86514C19.9728 6.75339 20.1244 6.69054 20.2824 6.69038H31.7168C31.8748 6.69054 32.0263 6.75339 32.1381 6.86514C32.2499 6.97689 32.3128 7.12842 32.313 7.28647V11.7993H19.6862V7.28647Z" fill="#B8BDBF"/>
<path d="M46.7958 30.7332C28.1775 36.154 28.4186 36.2637 25.9996 36.2637C23.5979 36.2637 24.1676 36.2548 5.20341 30.7333C3.20389 30.151 1.43305 29.0779 0.012085 27.5984V43.4374C0.012085 46.2904 2.33312 48.6114 5.18618 48.6114H46.813C49.666 48.6114 51.9871 46.2904 51.9871 43.4374V27.5984C50.5661 29.0778 48.7952 30.151 46.7958 30.7332Z" fill="#B8BDBF"/>
</svg>
