<svg width="25" height="24" viewBox="0 0 25 24" fill="none" xmlns="http://www.w3.org/2000/svg">
<g clip-path="url(#clip0_2931_2337)">
<path d="M20.9267 3H4.58256C3.5686 3 2.75 3.83077 2.75 4.83692V15.7385C2.75 16.7538 3.5686 17.5754 4.58256 17.5754H6.23837V19.8277C6.23837 20.2892 6.49884 20.7046 6.88953 20.8708C7.04767 20.9538 7.23372 21 7.41047 21C7.67093 21 7.9407 20.9077 8.15465 20.7323L11.9407 17.5754H20.9267C21.9314 17.5754 22.75 16.7538 22.75 15.7385V4.83692C22.75 3.83077 21.9314 3 20.9267 3ZM6.89884 15.7477H4.58256V4.82769H20.9174L20.9267 15.7477H11.6244C11.4012 15.8031 11.1593 15.8585 10.964 16.0246L8.07093 18.4246V16.92C8.07093 16.2738 7.5407 15.7477 6.89884 15.7477Z" fill="#929394"/>
<path d="M16.2008 12.48L15.3822 11.3169V9.24919C15.3822 8.06765 14.6287 7.04304 13.5218 6.7015V6.65534C13.5218 6.23073 13.1776 5.87073 12.7497 5.87073C12.545 5.87073 12.359 5.94457 12.2101 6.09227C12.0613 6.23996 11.9776 6.4338 11.9776 6.65534V6.7015C10.8706 7.04304 10.1171 8.07688 10.1171 9.24919V11.3169L9.29851 12.48C9.26131 12.5446 9.2334 12.6184 9.2334 12.6923V13.0984C9.2334 13.3015 9.40084 13.4769 9.61479 13.4769H11.4567C11.4939 14.1692 12.0706 14.723 12.759 14.723C13.1032 14.723 13.4287 14.5938 13.6799 14.3446C13.9125 14.1046 14.052 13.8092 14.0706 13.4769H15.9125C16.1171 13.4769 16.2939 13.3107 16.2939 13.0984V12.6923C16.2939 12.6184 16.2753 12.5446 16.2287 12.48H16.2008ZM12.5357 6.64611C12.5357 6.52611 12.6287 6.42457 12.7497 6.42457C12.8706 6.42457 12.9636 6.52611 12.9636 6.64611V6.77534C12.8985 6.77534 12.8241 6.77534 12.7497 6.77534C12.6753 6.77534 12.6008 6.77534 12.5357 6.77534V6.64611ZM12.7497 13.9661C12.4613 13.9661 12.2287 13.7538 12.1915 13.4769H13.3078C13.2706 13.7538 13.038 13.9661 12.7497 13.9661ZM10.0427 12.72L10.7962 11.64C10.8334 11.5753 10.8613 11.5015 10.8613 11.4277V9.23996C10.8613 8.17842 11.6985 7.31996 12.7497 7.31996C13.8008 7.31996 14.638 8.17842 14.638 9.23996V11.4277C14.638 11.5015 14.6567 11.5846 14.7032 11.64L15.4567 12.72H10.0427Z" fill="#929394"/>
</g>
<defs>
<clipPath id="clip0_2931_2337">
<rect width="20" height="18" fill="white" transform="translate(2.75 3)"/>
</clipPath>
</defs>
</svg>
