<svg width="25" height="24" viewBox="0 0 25 24" fill="none" xmlns="http://www.w3.org/2000/svg">
<g clip-path="url(#clip0_2931_2357)">
<path d="M21.1214 3H4.3881C3.48333 3 2.75 3.73895 2.75 4.64842V15.8368C2.75 16.7463 3.48333 17.4853 4.3881 17.4853H6.32143V20.0337C6.32143 20.4126 6.54048 20.7537 6.86429 20.8958C6.9881 20.9621 7.14048 21 7.28333 21C7.50238 21 7.72143 20.9147 7.89286 20.7726L11.8357 17.4853H21.1214C22.0167 17.4853 22.75 16.7463 22.75 15.8368V4.64842C22.75 3.73895 22.0167 3 21.1214 3ZM21.35 15.8368C21.35 15.9695 21.2452 16.0832 21.1214 16.0832H11.6452C11.4452 16.1211 11.2357 16.1684 11.0738 16.3105L7.72143 19.0958V17.0495C7.72143 16.5189 7.29286 16.0832 6.75952 16.0832H4.3881C4.25476 16.0832 4.15 15.9789 4.15 15.8368V4.64842C4.15 4.50632 4.25476 4.40211 4.3881 4.40211H21.1214C21.2452 4.40211 21.35 4.51579 21.35 4.64842V15.8368Z" fill="#DC2626"/>
<path d="M21.1218 4.4021H4.38849C4.25515 4.4021 4.15039 4.50631 4.15039 4.64842V15.8368C4.15039 15.9789 4.25515 16.0832 4.38849 16.0832H6.75991C7.29325 16.0832 7.72182 16.5189 7.72182 17.0495V19.0958L11.0742 16.3105C11.2361 16.1684 11.4456 16.121 11.6456 16.0832H21.1218C21.2456 16.0832 21.3504 15.9695 21.3504 15.8368V4.64842C21.3504 4.51578 21.2456 4.4021 21.1218 4.4021ZM17.0932 13.7147C17.0932 13.9705 16.8837 14.1789 16.6266 14.1789H14.3599C14.3409 14.5863 14.1694 14.9558 13.8837 15.2495C13.579 15.5526 13.179 15.7137 12.7504 15.7137C11.8932 15.7137 11.1885 15.0316 11.1409 14.1789H8.8742C8.61706 14.1789 8.40753 13.9705 8.40753 13.7147V13.2126C8.40753 13.1179 8.44563 13.0326 8.49325 12.9474L9.50277 11.5074V8.94947C9.50277 7.49052 10.4361 6.22105 11.798 5.79473V5.73789C11.798 5.47263 11.9028 5.22631 12.0837 5.04631C12.2647 4.86631 12.5028 4.77157 12.7504 4.77157C13.2742 4.77157 13.7028 5.20736 13.7028 5.73789V5.79473C15.0647 6.22105 15.998 7.49052 15.998 8.94947V11.5074L17.0075 12.9474C17.0647 13.0326 17.0932 13.1179 17.0932 13.2126V13.7147Z" fill="#DC2626"/>
</g>
<defs>
<clipPath id="clip0_2931_2357">
<rect width="20" height="18" fill="white" transform="translate(2.75 3)"/>
</clipPath>
</defs>
</svg>
