<svg width="16" height="16" viewBox="0 0 16 16" fill="none" xmlns="http://www.w3.org/2000/svg">
<path d="M5.99999 15.7315C5.80299 15.7319 5.60787 15.6933 5.42583 15.618C5.24379 15.5427 5.07842 15.4322 4.93924 15.2928L0.692738 11.0463C0.415984 10.7672 0.259229 10.391 0.255913 9.99799C0.252597 9.60497 0.402982 9.22621 0.674989 8.9425L7.45224 1.95675C7.59232 1.81262 7.75981 1.69797 7.94485 1.61953C8.12989 1.54109 8.32876 1.50045 8.52974 1.5H11C11.0663 1.5 11.1299 1.52634 11.1768 1.57322C11.2237 1.62011 11.25 1.6837 11.25 1.75C11.25 1.8163 11.2237 1.87989 11.1768 1.92678C11.1299 1.97366 11.0663 2 11 2H8.52974C8.39572 2.00027 8.26311 2.02735 8.13972 2.07965C8.01633 2.13194 7.90464 2.20839 7.81124 2.3045L1.03449 9.2905C0.853215 9.47961 0.75299 9.73206 0.755185 9.99401C0.75738 10.256 0.861821 10.5067 1.04624 10.6927L5.29274 14.9392C5.48044 15.1265 5.73474 15.2316 5.99986 15.2316C6.26499 15.2316 6.51929 15.1265 6.70699 14.9392L13.707 7.93925C13.8001 7.84662 13.874 7.73644 13.9243 7.61509C13.9746 7.49373 14.0003 7.36361 14 7.23225V2.75C14 2.55109 13.921 2.36032 13.7803 2.21967C13.6397 2.07902 13.4489 2 13.25 2H11.75C11.6837 2 11.6201 1.97366 11.5732 1.92678C11.5263 1.87989 11.5 1.8163 11.5 1.75C11.5 1.6837 11.5263 1.62011 11.5732 1.57322C11.6201 1.52634 11.6837 1.5 11.75 1.5H13.25C13.5814 1.5004 13.8991 1.63222 14.1334 1.86655C14.3678 2.10089 14.4996 2.4186 14.5 2.75V7.23225C14.5006 7.42932 14.462 7.62455 14.3866 7.80663C14.3112 7.98871 14.2005 8.15402 14.0607 8.293L7.06074 15.293C6.92154 15.4324 6.75616 15.5429 6.57412 15.6181C6.39209 15.6934 6.19697 15.7319 5.99999 15.7315Z" fill="#EF4444" stroke="#EF4444" stroke-width="0.5"/>
<path d="M12.25 5C11.9186 4.9996 11.6009 4.86778 11.3666 4.63345C11.1322 4.39911 11.0004 4.0814 11 3.75C11 3.6837 11.0263 3.62011 11.0732 3.57322C11.1201 3.52634 11.1837 3.5 11.25 3.5C11.3163 3.5 11.3799 3.52634 11.4268 3.57322C11.4737 3.62011 11.5 3.6837 11.5 3.75C11.5 3.9215 11.5587 4.08782 11.6665 4.22125C11.7742 4.35468 11.9244 4.44715 12.0921 4.48326C12.2598 4.51937 12.4347 4.49692 12.5878 4.41967C12.7409 4.34242 12.863 4.21503 12.9335 4.05873C13.0041 3.90242 13.019 3.72666 12.9757 3.56071C12.9324 3.39477 12.8335 3.24868 12.6956 3.14679C12.5576 3.0449 12.3889 2.99336 12.2176 3.00077C12.0463 3.00818 11.8826 3.07408 11.754 3.1875C11.7043 3.23139 11.6391 3.25373 11.5729 3.24961C11.5067 3.24548 11.4449 3.21523 11.401 3.1655C11.3571 3.11577 11.3348 3.05064 11.3389 2.98444C11.343 2.91824 11.3733 2.85639 11.423 2.8125C11.5747 2.67873 11.7566 2.58376 11.953 2.53574C12.1495 2.48773 12.3547 2.48809 12.5509 2.53682C12.7472 2.58554 12.9288 2.68116 13.08 2.81548C13.2312 2.94979 13.3475 3.11879 13.419 3.30796C13.4905 3.49714 13.5151 3.70084 13.4906 3.90159C13.466 4.10234 13.3932 4.29414 13.2782 4.46053C13.1633 4.62693 13.0096 4.76294 12.8305 4.8569C12.6515 4.95086 12.4522 4.99997 12.25 5Z" fill="#EF4444" stroke="#EF4444" stroke-width="0.25"/>
<path d="M12.3751 3.5C12.1023 3.49997 11.8339 3.43128 11.5946 3.30024C11.3554 3.16921 11.153 2.98005 11.006 2.75021C10.8591 2.52037 10.7724 2.25724 10.7539 1.98508C10.7355 1.71293 10.7858 1.4405 10.9003 1.1929C11.0148 0.945314 11.1898 0.730532 11.4091 0.568358C11.6285 0.406185 11.8851 0.301838 12.1554 0.264937C12.4257 0.228036 12.7009 0.259769 12.9557 0.35721C13.2105 0.454651 13.4366 0.614665 13.6133 0.8225C13.6346 0.847501 13.6509 0.87646 13.661 0.907723C13.6711 0.938987 13.675 0.971944 13.6725 1.00471C13.6699 1.03748 13.6608 1.06942 13.6459 1.0987C13.631 1.12798 13.6104 1.15404 13.5854 1.17538C13.5604 1.19672 13.5315 1.21292 13.5002 1.22307C13.4689 1.23322 13.436 1.23711 13.4032 1.23452C13.3705 1.23193 13.3385 1.22292 13.3092 1.20798C13.2799 1.19305 13.2539 1.1725 13.2326 1.1475C13.1104 1.00338 12.9539 0.89235 12.7774 0.824664C12.601 0.756977 12.4104 0.734812 12.2232 0.760213C12.036 0.785614 11.8581 0.857763 11.7062 0.970003C11.5542 1.08224 11.4329 1.23096 11.3535 1.40242C11.2741 1.57389 11.2392 1.76259 11.252 1.9511C11.2648 2.13961 11.3248 2.32187 11.4266 2.48106C11.5284 2.64024 11.6687 2.77123 11.8344 2.86192C12.0002 2.95262 12.1861 3.0001 12.3751 3C12.4414 3 12.5049 3.02634 12.5518 3.07322C12.5987 3.12011 12.6251 3.1837 12.6251 3.25C12.6251 3.3163 12.5987 3.37989 12.5518 3.42678C12.5049 3.47366 12.4414 3.5 12.3751 3.5Z" fill="#EF4444" stroke="#EF4444" stroke-width="0.25"/>
</svg>
