<svg width="24" height="24" viewBox="0 0 24 24" fill="none" xmlns="http://www.w3.org/2000/svg">
<path d="M20.3251 12.7965L20.2631 13.3589L20.7133 13.7017L22.9732 15.4226C22.9736 15.4229 22.974 15.4232 22.9744 15.4236C22.9915 15.4371 22.9968 15.4498 22.9989 15.4601C23.0009 15.47 23.0012 15.4853 22.9908 15.5062L20.6325 19.4794L20.6261 19.4902L20.62 19.5011C20.62 19.5011 20.6196 19.5019 20.6184 19.5032C20.6173 19.5044 20.6157 19.506 20.6133 19.508C20.6074 19.5128 20.5975 19.519 20.5831 19.524C20.5536 19.5343 20.5224 19.5339 20.4961 19.5246L17.8238 18.4796L17.3266 18.2852L16.8884 18.5901C16.4019 18.9287 15.929 19.195 15.455 19.4035L14.9488 19.6262L14.8683 20.1733L14.4606 22.9436L14.4592 22.9533L14.4585 22.9587C14.4569 22.9612 14.4534 22.9658 14.4461 22.9719C14.4282 22.9869 14.3995 23 14.3626 23H9.63902C9.6024 23 9.57494 22.9872 9.55811 22.9729C9.54991 22.966 9.54586 22.9601 9.54422 22.9571C9.54288 22.9548 9.54284 22.9539 9.54277 22.9534L9.54148 22.9432L9.53999 22.9331L9.13325 20.1731L9.05256 19.6256L8.54576 19.4032C8.05289 19.1869 7.57237 18.9156 7.11303 18.5933L6.67396 18.2852L6.17441 18.4806L3.52378 19.5171C3.48129 19.5299 3.44303 19.5266 3.41467 19.5166C3.38397 19.5058 3.37567 19.4918 3.3749 19.4904L3.36903 19.48L3.36291 19.4697L1.01694 15.5164C1.0013 15.4857 1.00264 15.4651 1.00449 15.4556C1.00639 15.4459 1.01072 15.4362 1.02413 15.4255L3.28785 13.7017L3.73325 13.3625L3.67693 12.8055C3.64513 12.4911 3.6305 12.2329 3.6305 12C3.6305 11.7676 3.64508 11.5108 3.67827 11.2001L3.73815 10.6396L3.28956 10.2982L1.02851 8.57732C1.02819 8.57707 1.02787 8.57682 1.02755 8.57657C1.01019 8.56288 1.00332 8.54827 1.00095 8.53597C0.998572 8.52364 1.00058 8.51449 1.00616 8.5053L1.00621 8.50533L1.01152 8.49639L3.37016 4.52139L3.3763 4.51104L3.38219 4.50054C3.38251 4.49997 3.39085 4.48605 3.42021 4.4758C3.44844 4.46596 3.47855 4.4662 3.50489 4.47567L6.17874 5.52132L6.67536 5.71553L7.11335 5.41137C7.601 5.07271 8.07389 4.80615 8.5482 4.5971L9.05382 4.37425L9.13425 3.82758L9.54195 1.05633L9.54338 1.04666L9.54407 1.04126C9.54563 1.03878 9.54919 1.03419 9.55647 1.02807C9.57431 1.01309 9.60307 1 9.63998 1H14.3635C14.4001 1 14.4276 1.01281 14.4446 1.02716C14.4529 1.03416 14.457 1.04018 14.4587 1.04326C14.4602 1.04581 14.4603 1.04679 14.4604 1.04752L14.4616 1.05719L14.463 1.06684L14.8698 3.82778L14.9506 4.37626L15.4586 4.59832C15.9498 4.81303 16.4281 5.0837 16.8875 5.40692L17.3268 5.71597L17.827 5.52044L20.4818 4.48272C20.5205 4.47056 20.5566 4.47306 20.5848 4.48305C20.6154 4.49385 20.6256 4.50866 20.6278 4.51254L20.6332 4.522L20.6387 4.53135L22.9857 8.48548C23.0012 8.51574 22.9997 8.53544 22.998 8.54413C22.9962 8.55318 22.992 8.56318 22.9776 8.57456C22.9773 8.57479 22.977 8.57503 22.9767 8.57527L20.7134 10.2982L20.265 10.6396L20.3247 11.2C20.351 11.4463 20.372 11.719 20.372 12C20.372 12.2827 20.3517 12.5554 20.3251 12.7965ZM14.4595 22.9567C14.4596 22.9567 14.4594 22.9571 14.459 22.9578L14.4595 22.9567ZM9.54301 1.04332C9.54298 1.04331 9.5431 1.04292 9.54351 1.04219L9.54301 1.04332ZM6.89315 12C6.89315 14.7832 9.20882 16.9998 12.001 16.9998C14.7934 16.9998 17.1084 14.7831 17.1084 12C17.1084 9.21693 14.7934 7.00016 12.001 7.00016C9.20882 7.00016 6.89315 9.21678 6.89315 12Z" stroke="#929394" stroke-width="2"/>
</svg>
