<svg width="24" height="24" viewBox="0 0 24 24" fill="none" xmlns="http://www.w3.org/2000/svg">
<path d="M23.5844 14.6311L21.3191 12.9061C21.3485 12.6398 21.372 12.3291 21.372 12C21.372 11.6709 21.3475 11.3602 21.3191 11.0939L23.5863 9.36797C24.0075 9.04406 24.1235 8.46891 23.8544 7.98984L21.4986 4.02094C21.2406 3.56391 20.6625 3.35484 20.1359 3.54422L17.463 4.58906C16.9513 4.22906 16.4146 3.92484 15.8591 3.68203L15.4523 0.921094C15.3854 0.396094 14.9171 0 14.3635 0H9.63998C9.08643 0 8.61807 0.396094 8.5526 0.910781L8.1449 3.68203C7.60674 3.91922 7.07821 4.21828 6.54295 4.59L3.86276 3.54187C3.3506 3.34687 2.7672 3.55312 2.51016 4.01109L0.151519 7.98609C-0.126704 8.44406 -0.0126234 9.03797 0.41867 9.36984L2.68393 11.0939C2.64782 11.4319 2.6305 11.7248 2.6305 12C2.6305 12.2752 2.64782 12.5681 2.682 12.9061L0.414338 14.633C-0.00540313 14.9569 -0.120447 15.532 0.147668 16.0111L2.50294 19.98C2.75902 20.4361 3.33616 20.6438 3.86565 20.4572L6.53862 19.4119C7.0503 19.7709 7.58845 20.0752 8.14393 20.3189L8.55068 23.0789C8.61711 23.6039 9.08546 24 9.63902 24H14.3626C14.9161 24 15.3845 23.6039 15.4499 23.0892L15.8576 20.3189C16.3958 20.0822 16.9248 19.7831 17.4596 19.4109L20.1398 20.4591C20.6505 20.6522 21.2358 20.4478 21.4924 19.9898L23.8602 16.0008C24.1225 15.533 24.0075 14.9578 23.5844 14.6311ZM12.001 15.9998C9.73577 15.9998 7.89315 14.2059 7.89315 12C7.89315 9.79406 9.73577 8.00016 12.001 8.00016C14.2663 8.00016 16.1084 9.79406 16.1084 12C16.1084 14.2059 14.2663 15.9998 12.001 15.9998Z" fill="#DC2626"/>
</svg>
