<svg width="32" height="32" viewBox="0 0 32 32" fill="none" xmlns="http://www.w3.org/2000/svg">
<g clip-path="url(#clip0_3516_2445)">
<path d="M31.5717 5.98625C31.1969 5.80332 30.7418 5.9595 30.5589 6.33878L29.8182 7.86479L29.2247 7.57919L30.0056 5.97283C30.0056 5.96839 30.01 5.96394 30.01 5.95941C30.0144 5.95052 30.0189 5.9371 30.0234 5.92821C30.1439 5.62928 30.2823 5.27676 30.3313 4.87961C30.4831 3.69715 30.0324 2.44776 29.1221 1.53302C28.2564 0.662912 26.9312 0.172079 25.6729 0.2479C25.4096 0.265766 25.1285 0.314832 24.8385 0.39963C24.3788 0.533493 23.9282 0.765488 23.5043 1.09126C23.2008 1.32325 22.7769 1.7204 22.4869 2.27816C22.4869 2.28261 22.4824 2.28705 22.4824 2.29158C22.4824 2.29612 22.478 2.30047 22.478 2.30047L19.7115 8.00754C19.6971 8.03079 19.6837 8.0546 19.6713 8.07892C19.6579 8.10123 19.649 8.12798 19.6401 8.15474L12.4739 22.9244C12.3658 23.1496 12.3137 23.3976 12.3222 23.6473V23.6517L12.4828 28.4127C12.4995 28.8673 12.6694 29.3028 12.9647 29.6487L12.5408 30.5054C12.3534 30.8802 12.5096 31.3353 12.8844 31.5228C12.9882 31.575 13.1028 31.6025 13.219 31.6032C13.361 31.6031 13.5001 31.5633 13.6208 31.4884C13.7414 31.4136 13.8387 31.3065 13.9018 31.1793L14.3122 30.3449C14.3747 30.3493 14.4327 30.3538 14.4952 30.3538C14.9146 30.3538 15.3295 30.2243 15.6776 29.9656L19.5239 27.1456C19.6043 27.0875 19.6801 27.0162 19.747 26.9448C19.7605 26.9314 19.7694 26.918 19.7828 26.9046C19.8676 26.8065 19.9389 26.6949 19.997 26.5788L28.5598 8.94005L29.1533 9.22564L25.3382 17.0834C25.1553 17.4582 25.3114 17.9134 25.6907 18.0963C25.7978 18.1498 25.9094 18.1721 26.0209 18.1721C26.3021 18.1721 26.5743 18.0159 26.7037 17.7438L30.7999 9.30591C30.8222 9.27471 30.8446 9.23898 30.8624 9.20325C30.8803 9.16751 30.8892 9.13632 30.9026 9.10058L31.9244 6.9945C32.1072 6.62428 31.9466 6.16918 31.5717 5.98625ZM14.7764 28.7475C14.7094 28.7955 14.6316 28.8262 14.5499 28.8371C14.4682 28.848 14.3851 28.8387 14.3079 28.81C14.2846 28.7956 14.2608 28.7822 14.2365 28.7698C14.2231 28.7654 14.2142 28.7609 14.2008 28.7564C14.0714 28.6671 13.9911 28.5244 13.9866 28.3682L13.8794 25.267C14.8834 26.0479 16.0391 26.6101 17.2707 26.9225L14.7764 28.7475ZM18.7655 25.6374C16.938 25.4582 15.2357 24.6284 13.9687 23.2993L20.6976 9.43097L25.5033 11.7557L18.7655 25.6374ZM28.8231 4.68779C28.7963 4.89748 28.7115 5.12058 28.6267 5.33036L26.1726 10.386L21.3624 8.06122L23.8254 2.9833C23.9593 2.73788 24.169 2.49247 24.4278 2.29612C24.6955 2.09088 24.9811 1.93915 25.2533 1.85879C25.4362 1.80528 25.6103 1.774 25.7576 1.76511C26.5831 1.71604 27.4799 2.04626 28.0421 2.60846C28.6134 3.17956 28.9123 3.9783 28.8231 4.68779ZM10.1626 30.2423C9.97065 30.2379 9.74754 30.2423 9.51555 30.2423C8.30189 30.2557 6.03954 30.278 5.31671 29.4703C5.19174 29.332 5.03112 29.0821 5.08916 28.5645C5.25876 27.1054 6.07972 25.5704 6.80263 24.2184L6.92308 23.9908C7.1596 23.549 7.40502 23.1028 7.6459 22.6656C8.33753 21.4162 9.05147 20.1222 9.61812 18.7612C10.0376 17.7573 10.2696 16.8113 10.3098 15.959C10.3633 14.8167 10.0778 13.8216 9.46195 13.0006C8.7257 12.0145 7.65035 11.2916 6.17785 10.7829C4.95521 10.359 3.60769 10.1404 2.42078 9.94403C1.88533 9.85478 1.37663 9.77443 0.908107 9.6763C0.497628 9.5915 0.096037 9.85923 0.0156841 10.2698C-0.0691136 10.6803 0.198613 11.0819 0.60918 11.1622C1.1089 11.2649 1.63102 11.3496 2.17981 11.4388C4.43318 11.8092 6.99001 12.2242 8.24829 13.9064C8.99343 14.9015 8.98454 16.3383 8.21709 18.1766C7.68164 19.4618 6.99001 20.7156 6.31624 21.9293C6.07527 22.3666 5.82541 22.8217 5.58444 23.2723L5.464 23.4954C4.67424 24.9679 3.78182 26.6368 3.58102 28.3815C3.48289 29.2158 3.68813 29.9209 4.18785 30.4787C5.23645 31.6432 7.31133 31.7592 8.92214 31.7592C9.13182 31.7592 9.33715 31.7592 9.52897 31.7548C9.75652 31.7548 9.96629 31.7504 10.1448 31.7548H10.1537C10.5687 31.7548 10.9078 31.4201 10.9122 31.0051C10.9167 30.5948 10.5819 30.2467 10.1626 30.2423Z" fill="#B8BDBF"/>
</g>
<defs>
<clipPath id="clip0_3516_2445">
<rect width="32" height="32" fill="white"/>
</clipPath>
</defs>
</svg>
